{
  "accessors": [
    {
      "bufferView": 2,
      "componentType": 5126,
      "count": 4,
      "max": [
        210,
        210,
        0
      ],
      "min": [
        -210,
        -210,
        0
      ],
      "type": "VEC3"
    },
    {
      "bufferView": 2,
      "byteOffset": 48,
      "componentType": 5126,
      "count": 4,
      "max": [
        0,
        0,
        -1
      ],
      "min": [
        0,
        0,
        -1
      ],
      "type": "VEC3"
    },
    {
      "bufferView": 3,
      "componentType": 5126,
      "count": 4,
      "max": [
        -1,
        0,
        0,
        1
      ],
      "min": [
        -1,
        0,
        0,
        1
      ],
      "type": "VEC4"
    },
    {
      "bufferView": 1,
      "componentType": 5126,
      "count": 4,
      "max": [
        1,
        1
      ],
      "min": [
        0,
        0
      ],
      "type": "VEC2"
    },
    {
      "bufferView": 0,
      "componentType": 5125,
      "count": 6,
      "max": [
        3
      ],
      "min": [
        0
      ],
      "type": "SCALAR"
    },
    {
      "bufferView": 2,
      "byteOffset": 96,
      "componentType": 5126,
      "count": 4,
      "max": [
        210,
        210,
        10
      ],
      "min": [
        -210,
        -210,
        10
      ],
      "type": "VEC3"
    },
    {
      "bufferView": 2,
      "byteOffset": 144,
      "componentType": 5126,
      "count": 4,
      "max": [
        0,
        0,
        1
      ],
      "min": [
        0,
        0,
        1
      ],
      "type": "VEC3"
    },
    {
      "bufferView": 3,
      "byteOffset": 64,
      "componentType": 5126,
      "count": 4,
      "max": [
        1,
        0,
        0,
        1
      ],
      "min": [
        1,
        0,
        0,
        1
      ],
      "type": "VEC4"
    },
    {
      "bufferView": 1,
      "byteOffset": 32,
      "componentType": 5126,
      "count": 4,
      "max": [
        1,
        1
      ],
      "min": [
        0,
        0
      ],
      "type": "VEC2"
    },
    {
      "bufferView": 1,
      "byteOffset": 64,
      "componentType": 5126,
      "count": 4,
      "max": [
        1,
        1
      ],
      "min": [
        0,
        0
      ],
      "type": "VEC2"
    },
    {
      "bufferView": 0,
      "byteOffset": 24,
      "componentType": 5125,
      "count": 6,
      "max": [
        3
      ],
      "min": [
        0
      ],
      "type": "SCALAR"
    },
    {
      "bufferView": 2,
      "byteOffset": 192,
      "componentType": 5126,
      "count": 16,
      "max": [
        210,
        210,
        10
      ],
      "min": [
        -210,
        -210,
        0
      ],
      "type": "VEC3"
    },
    {
      "bufferView": 2,
      "byteOffset": 384,
      "componentType": 5126,
      "count": 16,
      "max": [
        1,
        1,
        0
      ],
      "min": [
        -1,
        -1,
        0
      ],
      "type": "VEC3"
    },
    {
      "bufferView": 3,
      "byteOffset": 128,
      "componentType": 5126,
      "count": 16,
      "max": [
        1,
        1,
        0,
        1
      ],
      "min": [
        -1,
        -1,
        0,
        1
      ],
      "type": "VEC4"
    },
    {
      "bufferView": 1,
      "byteOffset": 96,
      "componentType": 5126,
      "count": 16,
      "max": [
        1,
        1
      ],
      "min": [
        0,
        0
      ],
      "type": "VEC2"
    },
    {
      "bufferView": 0,
      "byteOffset": 48,
      "componentType": 5125,
      "count": 24,
      "max": [
        15
      ],
      "min": [
        0
      ],
      "type": "SCALAR"
    },
    {
      "bufferView": 2,
      "byteOffset": 576,
      "componentType": 5126,
      "count": 1252,
      "max": [
        143.4127197265625,
        244.921630859375,
        20.202817916870117
      ],
      "min": [
        -143.4127197265625,
        215.37738037109375,
        -9.7971839904785156
      ],
      "type": "VEC3"
    },
    {
      "bufferView": 2,
      "byteOffset": 15600,
      "componentType": 5126,
      "count": 1252,
      "max": [
        1,
        0.98480868339538574,
        1
      ],
      "min": [
        -1,
        -0.98480868339538574,
        -1
      ],
      "type": "VEC3"
    },
    {
      "bufferView": 3,
      "byteOffset": 384,
      "componentType": 5126,
      "count": 1252,
      "max": [
        0.98550206422805786,
        1,
        0.99301826953887939,
        1
      ],
      "min": [
        -0.98550200462341309,
        -1,
        -0.99849122762680054,
        -1
      ],
      "type": "VEC4"
    },
    {
      "bufferView": 1,
      "byteOffset": 224,
      "componentType": 5126,
      "count": 1252,
      "max": [
        1.0336474180221558,
        1.0406172275543213
      ],
      "min": [
        -0.033647581934928894,
        -0.04061705619096756
      ],
      "type": "VEC2"
    },
    {
      "bufferView": 0,
      "byteOffset": 144,
      "componentType": 5125,
      "count": 3864,
      "max": [
        1251
      ],
      "min": [
        0
      ],
      "type": "SCALAR"
    },
    {
      "bufferView": 2,
      "byteOffset": 30624,
      "componentType": 5126,
      "count": 148,
      "max": [
        137.158203125,
        223.49812316894531,
        9.0025005340576172
      ],
      "min": [
        -137.15818786621094,
        209.59884643554688,
        1.4031383991241455
      ],
      "type": "VEC3"
    },
    {
      "bufferView": 2,
      "byteOffset": 32400,
      "componentType": 5126,
      "count": 148,
      "max": [
        1,
        1,
        0.98480814695358276
      ],
      "min": [
        -1,
        -1,
        -0.98480808734893799
      ],
      "type": "VEC3"
    },
    {
      "bufferView": 3,
      "byteOffset": 20416,
      "componentType": 5126,
      "count": 148,
      "max": [
        0.98480814695358276,
        2.6807910558090953e-08,
        1,
        1
      ],
      "min": [
        -0.98480802774429321,
        -2.6807896347236237e-08,
        -1,
        -1
      ],
      "type": "VEC4"
    },
    {
      "bufferView": 1,
      "byteOffset": 10240,
      "componentType": 5126,
      "count": 148,
      "max": [
        1.0277777910232544,
        1
      ],
      "min": [
        0.0075961053371429443,
        0
      ],
      "type": "VEC2"
    },
    {
      "bufferView": 0,
      "byteOffset": 15600,
      "componentType": 5125,
      "count": 408,
      "max": [
        147
      ],
      "min": [
        0
      ],
      "type": "SCALAR"
    },
    {
      "bufferView": 2,
      "byteOffset": 34176,
      "componentType": 5126,
      "count": 456,
      "max": [
        136.87490844726562,
        944.162109375,
        33.467861175537109
      ],
      "min": [
        -136.87489318847656,
        212.16177368164062,
        -23.467962265014648
      ],
      "type": "VEC3"
    },
    {
      "bufferView": 2,
      "byteOffset": 39648,
      "componentType": 5126,
      "count": 456,
      "max": [
        1,
        1,
        0.99999970197677612
      ],
      "min": [
        -1,
        -1,
        -0.99999970197677612
      ],
      "type": "VEC3"
    },
    {
      "bufferView": 3,
      "byteOffset": 22784,
      "componentType": 5126,
      "count": 456,
      "max": [
        1,
        0.99026745557785034,
        1,
        1
      ],
      "min": [
        -1,
        -0.99026745557785034,
        -2.2992965114099206e-06,
        -1
      ],
      "type": "VEC4"
    },
    {
      "bufferView": 1,
      "byteOffset": 11424,
      "componentType": 5126,
      "count": 456,
      "max": [
        0.73467040061950684,
        1.171877384185791
      ],
      "min": [
        -0.26532959938049316,
        0.17187735438346863
      ],
      "type": "VEC2"
    },
    {
      "bufferView": 0,
      "byteOffset": 17232,
      "componentType": 5125,
      "count": 2424,
      "max": [
        455
      ],
      "min": [
        0
      ],
      "type": "SCALAR"
    },
    {
      "bufferView": 2,
      "byteOffset": 45120,
      "componentType": 5126,
      "count": 20,
      "max": [
        210,
        210,
        31.466733932495117
      ],
      "min": [
        -210,
        -210,
        0
      ],
      "type": "VEC3"
    },
    {
      "bufferView": 2,
      "byteOffset": 45360,
      "componentType": 5126,
      "count": 20,
      "max": [
        1,
        1,
        0
      ],
      "min": [
        -1,
        -1,
        -1
      ],
      "type": "VEC3"
    },
    {
      "bufferView": 3,
      "byteOffset": 30080,
      "componentType": 5126,
      "count": 20,
      "max": [
        1,
        1,
        4.5413064420074534e-09,
        1
      ],
      "min": [
        -1,
        -1,
        -4.5413064420074534e-09,
        1
      ],
      "type": "VEC4"
    },
    {
      "bufferView": 1,
      "byteOffset": 15072,
      "componentType": 5126,
      "count": 20,
      "max": [
        1,
        1
      ],
      "min": [
        0,
        0
      ],
      "type": "VEC2"
    },
    {
      "bufferView": 0,
      "byteOffset": 26928,
      "componentType": 5125,
      "count": 30,
      "max": [
        19
      ],
      "min": [
        0
      ],
      "type": "SCALAR"
    },
    {
      "bufferView": 2,
      "byteOffset": 45600,
      "componentType": 5126,
      "count": 4,
      "max": [
        210,
        210,
        31.466733932495117
      ],
      "min": [
        -210,
        -210,
        31.466732025146484
      ],
      "type": "VEC3"
    },
    {
      "bufferView": 2,
      "byteOffset": 45648,
      "componentType": 5126,
      "count": 4,
      "max": [
        -4.5413059979182435e-09,
        0,
        1
      ],
      "min": [
        -4.5413064420074534e-09,
        0,
        1
      ],
      "type": "VEC3"
    },
    {
      "bufferView": 3,
      "byteOffset": 30400,
      "componentType": 5126,
      "count": 4,
      "max": [
        1,
        0,
        4.5413059979182435e-09,
        1
      ],
      "min": [
        1,
        0,
        4.5413059979182435e-09,
        1
      ],
      "type": "VEC4"
    },
    {
      "bufferView": 1,
      "byteOffset": 15232,
      "componentType": 5126,
      "count": 4,
      "max": [
        1,
        1
      ],
      "min": [
        0,
        0
      ],
      "type": "VEC2"
    },
    {
      "bufferView": 1,
      "byteOffset": 15264,
      "componentType": 5126,
      "count": 4,
      "max": [
        1,
        1
      ],
      "min": [
        0,
        0
      ],
      "type": "VEC2"
    },
    {
      "bufferView": 0,
      "byteOffset": 27048,
      "componentType": 5125,
      "count": 6,
      "max": [
        3
      ],
      "min": [
        0
      ],
      "type": "SCALAR"
    },
    {
      "bufferView": 2,
      "byteOffset": 45696,
      "componentType": 5126,
      "count": 112,
      "max": [
        176.41912841796875,
        3146.70458984375,
        28.875102996826172
      ],
      "min": [
        -176.41926574707031,
        194.10676574707031,
        2.5910873413085938
      ],
      "type": "VEC3"
    },
    {
      "bufferView": 2,
      "byteOffset": 47040,
      "componentType": 5126,
      "count": 112,
      "max": [
        1,
        1,
        0.98016119003295898
      ],
      "min": [
        -1,
        -1.2093630630261032e-07,
        -0.98016130924224854
      ],
      "type": "VEC3"
    },
    {
      "bufferView": 3,
      "byteOffset": 30464,
      "componentType": 5126,
      "count": 112,
      "max": [
        0.98016113042831421,
        2.445566238407082e-08,
        1,
        1
      ],
      "min": [
        -0.98016124963760376,
        -2.4455554026303616e-08,
        -1,
        1
      ],
      "type": "VEC4"
    },
    {
      "bufferView": 1,
      "byteOffset": 15296,
      "componentType": 5126,
      "count": 112,
      "max": [
        1.0277777910232544,
        1
      ],
      "min": [
        0.0075961053371429443,
        0
      ],
      "type": "VEC2"
    },
    {
      "bufferView": 0,
      "byteOffset": 27072,
      "componentType": 5125,
      "count": 312,
      "max": [
        111
      ],
      "min": [
        0
      ],
      "type": "SCALAR"
    }
  ],
  "asset": {
    "extras": {
      "author": "Anthony Yanez (https://sketchfab.com/paulyanez)",
      "license": "CC-BY-4.0 (http://creativecommons.org/licenses/by/4.0/)",
      "source": "https://sketchfab.com/models/2d19327e22284f7e85ffd444e55bbbc8",
      "title": "Krusty Krab Menu (Spongebob)"
    },
    "generator": "Sketchfab-3.42.7",
    "version": "2.0"
  },
  "bufferViews": [
    {
      "buffer": 0,
      "byteLength": 28320,
      "byteOffset": 0,
      "name": "floatBufferViews",
      "target": 34963
    },
    {
      "buffer": 0,
      "byteLength": 16192,
      "byteOffset": 28320,
      "byteStride": 8,
      "name": "floatBufferViews",
      "target": 34962
    },
    {
      "buffer": 0,
      "byteLength": 48384,
      "byteOffset": 44512,
      "byteStride": 12,
      "name": "floatBufferViews",
      "target": 34962
    },
    {
      "buffer": 0,
      "byteLength": 32256,
      "byteOffset": 92896,
      "byteStride": 16,
      "name": "floatBufferViews",
      "target": 34962
    }
  ],
  "buffers": [
    {
      "byteLength": 125152,
      "uri": "scene.bin"
    }
  ],
  "images": [
    {
      "uri": "textures/08_-_Default_baseColor.png"
    },
    {
      "uri": "textures/03_-_Default_baseColor.png"
    },
    {
      "uri": "textures/01_-_Default_baseColor.png"
    },
    {
      "uri": "textures/01_-_Default_normal.png"
    },
    {
      "uri": "textures/02_-_Default_baseColor.png"
    },
    {
      "uri": "textures/14_-_Default_baseColor.png"
    },
    {
      "uri": "textures/09_-_Default_baseColor.png"
    },
    {
      "uri": "textures/13_-_Default_baseColor.png"
    },
    {
      "uri": "textures/13_-_Default_normal.png"
    },
    {
      "uri": "textures/07_-_Default_baseColor.png"
    }
  ],
  "materials": [
    {
      "doubleSided": true,
      "emissiveFactor": [
        0,
        0,
        0
      ],
      "name": "02_-_Default",
      "pbrMetallicRoughness": {
        "baseColorFactor": [
          1,
          1,
          1,
          1
        ],
        "baseColorTexture": {
          "index": 4,
          "texCoord": 0
        },
        "metallicFactor": 1,
        "roughnessFactor": 0.89297135959999996
      }
    },
    {
      "doubleSided": true,
      "emissiveFactor": [
        0,
        0,
        0
      ],
      "name": "01_-_Default",
      "normalTexture": {
        "index": 3,
        "scale": 1,
        "texCoord": 0
      },
      "pbrMetallicRoughness": {
        "baseColorFactor": [
          1,
          1,
          1,
          1
        ],
        "baseColorTexture": {
          "index": 2,
          "texCoord": 0
        },
        "metallicFactor": 0.77000762199999995,
        "roughnessFactor": 0.87023628050000001
      }
    },
    {
      "doubleSided": true,
      "emissiveFactor": [
        0,
        0,
        0
      ],
      "name": "03_-_Default",
      "pbrMetallicRoughness": {
        "baseColorFactor": [
          1,
          1,
          1,
          1
        ],
        "baseColorTexture": {
          "index": 1,
          "texCoord": 0
        },
        "metallicFactor": 1,
        "roughnessFactor": 0.89297135959999996
      }
    },
    {
      "doubleSided": true,
      "emissiveFactor": [
        0,
        0,
        0
      ],
      "name": "07_-_Default",
      "pbrMetallicRoughness": {
        "baseColorFactor": [
          1,
          1,
          1,
          1
        ],
        "baseColorTexture": {
          "index": 9,
          "texCoord": 0
        },
        "metallicFactor": 1,
        "roughnessFactor": 0.52267530490000003
      }
    },
    {
      "doubleSided": true,
      "emissiveFactor": [
        0,
        0,
        0
      ],
      "name": "08_-_Default",
      "pbrMetallicRoughness": {
        "baseColorFactor": [
          1,
          1,
          1,
          1
        ],
        "baseColorTexture": {
          "index": 0,
          "texCoord": 0
        },
        "metallicFactor": 0,
        "roughnessFactor": 0.89297135959999996
      }
    },
    {
      "doubleSided": true,
      "emissiveFactor": [
        0,
        0,
        0
      ],
      "name": "09_-_Default",
      "pbrMetallicRoughness": {
        "baseColorFactor": [
          1,
          1,
          1,
          1
        ],
        "baseColorTexture": {
          "index": 6,
          "texCoord": 0
        },
        "metallicFactor": 1,
        "roughnessFactor": 0.89297135959999996
      }
    },
    {
      "doubleSided": true,
      "emissiveFactor": [
        0,
        0,
        0
      ],
      "name": "14_-_Default",
      "pbrMetallicRoughness": {
        "baseColorFactor": [
          1,
          1,
          1,
          1
        ],
        "baseColorTexture": {
          "index": 5,
          "texCoord": 0
        },
        "metallicFactor": 1,
        "roughnessFactor": 0.89297135959999996
      }
    },
    {
      "doubleSided": true,
      "emissiveFactor": [
        0,
        0,
        0
      ],
      "name": "13_-_Default",
      "normalTexture": {
        "index": 8,
        "scale": 1,
        "texCoord": 0
      },
      "pbrMetallicRoughness": {
        "baseColorFactor": [
          1,
          1,
          1,
          1
        ],
        "baseColorTexture": {
          "index": 7,
          "texCoord": 0
        },
        "metallicFactor": 1,
        "roughnessFactor": 0.89297135959999996
      }
    }
  ],
  "meshes": [
    {
      "name": "Menu_02 - Default_0",
      "primitives": [
        {
          "attributes": {
            "NORMAL": 1,
            "POSITION": 0,
            "TANGENT": 2,
            "TEXCOORD_0": 3
          },
          "indices": 4,
          "material": 0,
          "mode": 4
        }
      ]
    },
    {
      "name": "Menu_01 - Default_0",
      "primitives": [
        {
          "attributes": {
            "NORMAL": 6,
            "POSITION": 5,
            "TANGENT": 7,
            "TEXCOORD_0": 8,
            "TEXCOORD_1": 9
          },
          "indices": 10,
          "material": 1,
          "mode": 4
        }
      ]
    },
    {
      "name": "Menu_03 - Default_0",
      "primitives": [
        {
          "attributes": {
            "NORMAL": 12,
            "POSITION": 11,
            "TANGENT": 13,
            "TEXCOORD_0": 14
          },
          "indices": 15,
          "material": 2,
          "mode": 4
        }
      ]
    },
    {
      "name": "Menu_07 - Default_0",
      "primitives": [
        {
          "attributes": {
            "NORMAL": 17,
            "POSITION": 16,
            "TANGENT": 18,
            "TEXCOORD_0": 19
          },
          "indices": 20,
          "material": 3,
          "mode": 4
        }
      ]
    },
    {
      "name": "Menu_08 - Default_0",
      "primitives": [
        {
          "attributes": {
            "NORMAL": 22,
            "POSITION": 21,
            "TANGENT": 23,
            "TEXCOORD_0": 24
          },
          "indices": 25,
          "material": 4,
          "mode": 4
        }
      ]
    },
    {
      "name": "Menu_09 - Default_0",
      "primitives": [
        {
          "attributes": {
            "NORMAL": 27,
            "POSITION": 26,
            "TANGENT": 28,
            "TEXCOORD_0": 29
          },
          "indices": 30,
          "material": 5,
          "mode": 4
        }
      ]
    },
    {
      "name": "Order Here_14 - Default_0",
      "primitives": [
        {
          "attributes": {
            "NORMAL": 32,
            "POSITION": 31,
            "TANGENT": 33,
            "TEXCOORD_0": 34
          },
          "indices": 35,
          "material": 6,
          "mode": 4
        }
      ]
    },
    {
      "name": "Order Here_13 - Default_0",
      "primitives": [
        {
          "attributes": {
            "NORMAL": 37,
            "POSITION": 36,
            "TANGENT": 38,
            "TEXCOORD_0": 39,
            "TEXCOORD_1": 40
          },
          "indices": 41,
          "material": 7,
          "mode": 4
        }
      ]
    },
    {
      "name": "Order Here_09 - Default_0",
      "primitives": [
        {
          "attributes": {
            "NORMAL": 43,
            "POSITION": 42,
            "TANGENT": 44,
            "TEXCOORD_0": 45
          },
          "indices": 46,
          "material": 5,
          "mode": 4
        }
      ]
    }
  ],
  "nodes": [
    {
      "children": [
        1
      ],
      "name": "RootNode (gltf orientation matrix)",
      "rotation": [
        -0.70710678118654746,
        -0,
        -0,
        0.70710678118654757
      ]
    },
    {
      "children": [
        2
      ],
      "name": "RootNode (model correction matrix)"
    },
    {
      "children": [
        3
      ],
      "matrix": [
        1,
        0,
        0,
        0,
        0,
        0,
        1,
        0,
        0,
        -1,
        0,
        0,
        0,
        0,
        0,
        1
      ],
      "name": "Krusty Krab Menu.FBX"
    },
    {
      "children": [
        4,
        11
      ],
      "name": "RootNode"
    },
    {
      "children": [
        5,
        6,
        7,
        8,
        9,
        10
      ],
      "matrix": [
        1,
        0,
        0,
        0,
        0,
        0.99999999999998668,
        1.6292068494294582e-07,
        0,
        0,
        -1.6292068494294582e-07,
        0.99999999999998668,
        0,
        -295.41668701171875,
        0,
        0,
        1
      ],
      "name": "Menu"
    },
    {
      "mesh": 0,
      "name": "Menu_02 - Default_0"
    },
    {
      "mesh": 1,
      "name": "Menu_01 - Default_0"
    },
    {
      "mesh": 2,
      "name": "Menu_03 - Default_0"
    },
    {
      "mesh": 3,
      "name": "Menu_07 - Default_0"
    },
    {
      "mesh": 4,
      "name": "Menu_08 - Default_0"
    },
    {
      "mesh": 5,
      "name": "Menu_09 - Default_0"
    },
    {
      "children": [
        12,
        13,
        14
      ],
      "matrix": [
        0.347563236951828,
        0,
        0,
        0,
        0,
        0.29999998211860257,
        4.8876202636248261e-08,
        0,
        0,
        -4.8876202636248261e-08,
        0.29999998211860257,
        0,
        170.51556396484375,
        0,
        0,
        1
      ],
      "name": "Order Here"
    },
    {
      "mesh": 6,
      "name": "Order Here_14 - Default_0"
    },
    {
      "mesh": 7,
      "name": "Order Here_13 - Default_0"
    },
    {
      "mesh": 8,
      "name": "Order Here_09 - Default_0"
    }
  ],
  "samplers": [
    {
      "magFilter": 9729,
      "minFilter": 9987,
      "wrapS": 10497,
      "wrapT": 10497
    }
  ],
  "scene": 0,
  "scenes": [
    {
      "name": "OSG_Scene",
      "nodes": [
        0
      ]
    }
  ],
  "textures": [
    {
      "sampler": 0,
      "source": 0
    },
    {
      "sampler": 0,
      "source": 1
    },
    {
      "sampler": 0,
      "source": 2
    },
    {
      "sampler": 0,
      "source": 3
    },
    {
      "sampler": 0,
      "source": 4
    },
    {
      "sampler": 0,
      "source": 5
    },
    {
      "sampler": 0,
      "source": 6
    },
    {
      "sampler": 0,
      "source": 7
    },
    {
      "sampler": 0,
      "source": 8
    },
    {
      "sampler": 0,
      "source": 9
    }
  ]
}

